<svg xmlns="http://www.w3.org/2000/svg" xmlns:xlink="http://www.w3.org/1999/xlink" id="Layer_1" data-name="Layer 1" viewBox="0 0 512 512"><defs><linearGradient id="linear-gradient" x1="256" x2="256" y2="512" gradientUnits="userSpaceOnUse"><stop offset="0" stop-color="#e9ebf5"/><stop offset=".76" stop-color="#b0c7e1"/><stop offset="1" stop-color="#7697c6"/></linearGradient><linearGradient id="linear-gradient-2" x1="256" x2="256" y1="415.73" y2="96.27" gradientUnits="userSpaceOnUse"><stop offset="0" stop-color="#000013"/><stop offset="1" stop-color="#005c92"/></linearGradient></defs><title>star</title><path fill="url(#linear-gradient)" fill-rule="evenodd" d="M256,512c141,0,256-115,256-256S397,0,256,0,0,115,0,256,115,512,256,512Z"/><path fill="#fff" d="M166.8,296.41,89.16,240.07s-15.41-8.95-10.85-23S100.55,205,100.55,205l95.87,0L226,113.7s3.74-17.44,18.48-17.44,18.37,17.44,18.37,17.44L292.42,205l95.91-.09s17.72-1.83,22.27,12.2S399.7,240,399.7,240l-77.58,56.37,29.73,91.26s7.22,16.29-4.71,25S322,409.27,322,409.27l-77.54-56.44L167,409.33s-13.26,11.91-25.19,3.24-4.62-24.92-4.62-24.92Z"/><path fill="url(#linear-gradient-2)" d="M178.36,296.41l-77.65-56.34s-15.41-8.95-10.86-23S112.1,205,112.1,205L208,205l29.55-91.32S241.26,96.27,256,96.27s18.37,17.44,18.37,17.44L304,205l95.91-.09s17.72-1.83,22.28,12.2S411.26,240,411.26,240l-77.58,56.37,29.73,91.26s7.22,16.29-4.71,25-25.11-3.29-25.11-3.29L256,352.83l-77.53,56.5s-13.26,11.91-25.19,3.24-4.62-24.92-4.62-24.92Z"/></svg>